<svg width="20" height="20" viewBox="0 0 20 20" fill="none" xmlns="http://www.w3.org/2000/svg">
<path d="M10.6248 3.00988C10.749 3.00332 10.8741 3 10.9999 3C14.8659 3 17.9999 6.13401 17.9999 10C17.9999 13.866 14.8659 17 10.9999 17C9.67307 17 8.43243 16.6308 7.37512 15.9896C11.0667 15.7946 13.9999 12.7396 13.9999 8.99946C13.9999 6.46034 12.648 4.23697 10.6248 3.00988Z" fill="#fff"/>
<path d="M4.4 8.2L4.4 8.2C4.50137 8.50412 4.55206 8.65618 4.60276 8.7225C4.80288 8.98431 5.19712 8.98431 5.39724 8.7225C5.44794 8.65618 5.49863 8.50412 5.6 8.2L5.6 8.2C5.68177 7.95468 5.72266 7.83201 5.77555 7.72099C5.97291 7.30672 6.30672 6.97291 6.72099 6.77555C6.83201 6.72266 6.95468 6.68177 7.2 6.6L7.2 6.6C7.50412 6.49863 7.65618 6.44794 7.7225 6.39724C7.98431 6.19712 7.98431 5.80288 7.7225 5.60276C7.65618 5.55206 7.50412 5.50137 7.2 5.4L7.2 5.4C6.95468 5.31822 6.83201 5.27734 6.72099 5.22445C6.30672 5.02709 5.97291 4.69329 5.77555 4.27901C5.72266 4.16799 5.68177 4.04532 5.6 3.8C5.49863 3.49588 5.44794 3.34382 5.39724 3.2775C5.19712 3.01569 4.80288 3.01569 4.60276 3.2775C4.55206 3.34382 4.50137 3.49588 4.4 3.8C4.31823 4.04532 4.27734 4.16799 4.22445 4.27901C4.02709 4.69329 3.69329 5.02709 3.27901 5.22445C3.16799 5.27734 3.04532 5.31823 2.8 5.4C2.49588 5.50137 2.34382 5.55206 2.2775 5.60276C2.01569 5.80288 2.01569 6.19712 2.2775 6.39724C2.34382 6.44794 2.49588 6.49863 2.8 6.6C3.04532 6.68177 3.16799 6.72266 3.27901 6.77555C3.69329 6.97291 4.02709 7.30672 4.22445 7.72099C4.27734 7.83201 4.31822 7.95468 4.4 8.2Z" fill="#fff"/>
</svg>
